<svg width="42" height="33" viewBox="0 0 42 33" fill="none" xmlns="http://www.w3.org/2000/svg">
<path d="M40.8947 22.8072H37.2279C36.6176 22.8072 36.1228 23.2672 36.1228 23.8347V31.9723C36.1228 32.5398 36.6176 32.9999 37.2279 32.9999H40.8947C41.505 32.9999 41.9999 32.5399 41.9999 31.9723V23.8347C41.9999 23.2672 41.5051 22.8072 40.8947 22.8072Z" fill="#D8DBE0"/>
<path d="M31.864 18.8999H28.1972C27.5869 18.8999 27.092 19.36 27.092 19.9274V31.9723C27.092 32.5398 27.5868 32.9999 28.1972 32.9999H31.864C32.4743 32.9999 32.9691 32.5399 32.9691 31.9723V19.9275C32.9692 19.36 32.4744 18.8999 31.864 18.8999Z" fill="#D8DBE0"/>
<path d="M13.8026 22.8072H10.1359C9.52554 22.8072 9.03076 23.2672 9.03076 23.8347V31.9723C9.03076 32.5398 9.52554 32.9999 10.1359 32.9999H13.8026C14.413 32.9999 14.9078 32.5399 14.9078 31.9723V23.8347C14.9078 23.2672 14.413 22.8072 13.8026 22.8072Z" fill="#D8DBE0"/>
<path d="M4.77197 18.8999H1.1052C0.494773 18.8999 0 19.36 0 19.9275V31.9724C0 32.5399 0.494773 33 1.1052 33H4.77197C5.3823 33 5.87708 32.54 5.87708 31.9724V19.9275C5.87708 19.36 5.3823 18.8999 4.77197 18.8999Z" fill="#D8DBE0"/>
<path d="M22.8335 13.7048H19.1667C18.5564 13.7048 18.0615 14.1649 18.0615 14.7324V31.9724C18.0615 32.5399 18.5563 33 19.1667 33H22.8335C23.4438 33 23.9387 32.54 23.9387 31.9724V14.7324C23.9387 14.1649 23.4438 13.7048 22.8335 13.7048Z" fill="#D8DBE0"/>
<path d="M39.9097 17.7524C40.6534 17.7524 41.2801 17.189 41.2801 16.4783V12.3605C41.2801 11.6569 40.6665 11.0864 39.9097 11.0864C39.153 11.0864 38.5394 11.6569 38.5394 12.3605V13.3899L24.6217 0.375753C24.3342 0.106919 23.9333 -0.0291548 23.5265 0.00524577C23.1203 0.0394765 22.7516 0.240104 22.5206 0.552682L12.0354 14.7425L2.82669 9.28805C2.1884 8.90999 1.34127 9.08454 0.934748 9.6781C0.528132 10.2716 0.715864 11.0591 1.35425 11.4372L11.6792 17.5529C11.9071 17.6878 12.1621 17.7526 12.4142 17.7526C12.8511 17.7526 13.2798 17.5585 13.5448 17.1999L23.8437 3.26209L36.6147 15.2042H35.481C34.7242 15.2042 34.1107 15.7746 34.1107 16.4783C34.1107 17.1819 34.7242 17.7524 35.481 17.7524C36.094 17.7524 39.2858 17.7524 39.9065 17.7524H39.9097Z" fill="#D8DBE0"/>
</svg>
